#N canvas 1075 290 255 329 10;
#X obj 60 32 inlet;
#X obj 60 54 sel 0 1 2 3;
#X obj 92 270 tgl 15 0 empty empty empty 17 7 0 10 -262144 -1 -1 0
1;
#X obj 92 290 s show_lead;
#X obj 110 244 tgl 15 0 empty empty empty 17 7 0 10 -262144 -1 -1 1
1;
#X obj 110 266 s show_left;
#X obj 60 172 onoff;
#X obj 78 149 onoff;
#X obj 129 220 tgl 15 0 empty empty empty 17 7 0 10 -262144 -1 -1 0
1;
#X obj 147 194 tgl 15 0 empty empty empty 17 7 0 10 -262144 -1 -1 0
1;
#X obj 97 122 onoff;
#X obj 115 86 onoff;
#X obj 129 240 s show_centre;
#X obj 147 216 s show_right;
#X connect 0 0 1 0;
#X connect 1 0 6 0;
#X connect 1 1 7 0;
#X connect 1 2 10 0;
#X connect 1 3 11 0;
#X connect 2 0 3 0;
#X connect 4 0 5 0;
#X connect 6 0 4 0;
#X connect 6 0 8 0;
#X connect 6 0 9 0;
#X connect 6 1 2 0;
#X connect 7 0 2 0;
#X connect 7 0 8 0;
#X connect 7 0 9 0;
#X connect 7 1 4 0;
#X connect 8 0 12 0;
#X connect 9 0 13 0;
#X connect 10 0 9 0;
#X connect 10 0 4 0;
#X connect 10 0 2 0;
#X connect 10 1 8 0;
#X connect 11 0 8 0;
#X connect 11 0 4 0;
#X connect 11 0 2 0;
#X connect 11 1 9 0;
