#N canvas 349 158 865 839 10;
#X floatatom 84 486 16 0 0 0 - - -, f 16;
#X obj 105 9 tgl 15 0 empty empty empty 17 7 0 10 -262144 -1 -1 1 1
;
#X msg 43 112 0;
#X obj 92 396 pow;
#X floatatom 92 418 16 0 0 0 - - -, f 16;
#X obj 43 79 sel 0 1;
#X floatatom 75 221 5 0 0 0 - - -, f 5;
#X obj 113 362 random 4;
#X obj 92 437 * 50;
#X floatatom 167 454 5 0 0 0 - - -, f 5;
#X obj 48 756 dac~ 1 2;
#X obj 96 504 % 44100;
#X obj 50 732 *~;
#X obj 108 730 *~;
#X obj 50 710 *~ 1;
#X obj 49 679 /~ 2;
#X obj 105 29 metro 128;
#X obj 541 88 hradio 15 1 0 6 empty empty empty 0 -8 0 10 -262144 -1
-1 5;
#X msg 543 229 8;
#X msg 559 208 16;
#X msg 577 187 32;
#X msg 594 161 64;
#X msg 611 130 128;
#X obj 46 619 osc~;
#N canvas 600 410 338 318 panpix 1;
#X obj 21 7 inlet;
#X obj 21 102 / 128;
#X floatatom 78 124 5 0 0 0 - - -, f 5;
#X obj 78 143 s pix;
#X obj 31 124 - 1;
#X floatatom 31 146 5 0 0 0 - - -, f 5;
#X obj 21 39 random 128;
#X obj 21 194 outlet;
#X obj 31 167 outlet;
#X obj 81 105 + 32;
#X obj 81 83 / 2;
#X obj 169 128 i;
#X obj 169 150 ctlout 1 1;
#X connect 0 0 6 0;
#X connect 1 0 4 0;
#X connect 1 0 7 0;
#X connect 2 0 3 0;
#X connect 2 0 11 0;
#X connect 4 0 5 0;
#X connect 5 0 8 0;
#X connect 6 0 1 0;
#X connect 6 0 10 0;
#X connect 9 0 2 0;
#X connect 10 0 9 0;
#X connect 11 0 12 0;
#X restore 505 414 pd panpix;
#N canvas 1208 478 301 370 volcol 1;
#X obj 33 330 s red;
#X obj 44 262 s green;
#X obj 48 183 s blue;
#X obj 33 48 random 128;
#X obj 51 79 / 128;
#X obj 44 238 spigot;
#X obj 47 157 spigot;
#X obj 33 308 spigot;
#X obj 33 20 inlet;
#X obj 72 284 r red_thru;
#X obj 51 101 outlet;
#X obj 83 208 r green_thru;
#X obj 86 132 r blue_thru;
#X obj 173 337 ctlout 3 1;
#X obj 195 253 ctlout 4 1;
#X obj 173 177 ctlout 5 1;
#X obj 195 91 r blue;
#X floatatom 195 113 5 0 0 0 - - -, f 5;
#X obj 199 208 r green;
#X floatatom 199 230 5 0 0 0 - - -, f 5;
#X obj 187 287 r red;
#X floatatom 187 309 5 0 0 0 - - -, f 5;
#X connect 3 0 4 0;
#X connect 3 0 5 0;
#X connect 3 0 6 0;
#X connect 3 0 7 0;
#X connect 4 0 10 0;
#X connect 5 0 1 0;
#X connect 6 0 2 0;
#X connect 7 0 0 0;
#X connect 8 0 3 0;
#X connect 9 0 7 1;
#X connect 11 0 5 1;
#X connect 12 0 6 1;
#X connect 16 0 17 0;
#X connect 17 0 15 0;
#X connect 18 0 14 0;
#X connect 18 0 19 0;
#X connect 20 0 13 0;
#X connect 20 0 21 0;
#X restore 353 303 pd volcol;
#N canvas 562 120 1128 845 mk_width 1;
#X obj 72 80 inlet;
#X obj 273 550 s width;
#X floatatom 273 530 5 0 0 0 - - -, f 5;
#X obj 72 115 moses 200;
#X msg 273 344 1;
#X msg 71 543 3;
#X obj 132 145 moses 4000;
#X msg 87 500 1;
#X msg 132 306 0;
#X msg 149 278 1;
#X obj 87 524 s red_thru;
#X obj 98 480 s green_thru;
#X obj 107 457 s blue_thru;
#X obj 132 388 s red_thru;
#X obj 142 368 s green_thru;
#X obj 165 306 s blue_thru;
#X obj 283 386 s green_thru;
#X obj 283 366 s red_thru;
#X obj 283 406 s blue_thru;
#X obj 154 326 s red;
#X obj 146 346 s green;
#X obj 126 413 s green;
#X obj 118 434 s blue;
#X msg 198 255 1;
#X obj 198 277 s green_thru;
#X msg 325 192 0;
#X obj 342 282 s red;
#X obj 325 304 s blue;
#X msg 98 337 0;
#X obj 355 254 s red_thru;
#X obj 355 234 s blue_thru;
#X floatatom 220 214 5 0 0 0 - - -, f 5;
#X obj 199 170 moses 16000;
#X obj 381 541 ctlout 2 1;
#X connect 0 0 3 0;
#X connect 2 0 1 0;
#X connect 2 0 33 0;
#X connect 3 0 5 0;
#X connect 3 0 7 0;
#X connect 3 0 28 0;
#X connect 3 1 6 0;
#X connect 4 0 2 0;
#X connect 4 0 16 0;
#X connect 4 0 17 0;
#X connect 4 0 18 0;
#X connect 5 0 2 0;
#X connect 6 0 8 0;
#X connect 6 0 9 0;
#X connect 6 1 32 0;
#X connect 7 0 10 0;
#X connect 8 0 13 0;
#X connect 8 0 14 0;
#X connect 8 0 19 0;
#X connect 8 0 20 0;
#X connect 9 0 2 0;
#X connect 9 0 15 0;
#X connect 23 0 24 0;
#X connect 23 0 2 0;
#X connect 25 0 26 0;
#X connect 25 0 27 0;
#X connect 25 0 29 0;
#X connect 25 0 30 0;
#X connect 28 0 21 0;
#X connect 28 0 12 0;
#X connect 28 0 22 0;
#X connect 28 0 11 0;
#X connect 32 0 23 0;
#X connect 32 0 25 0;
#X connect 32 0 31 0;
#X connect 32 1 4 0;
#X restore 162 581 pd mk_width;
#X obj 113 121 hradio 15 1 0 8 empty empty empty 0 -8 0 10 -262144
-1 -1 7;
#X obj 107 525 moses 200;
#X obj 249 464 tgl 15 0 empty empty empty 17 7 0 10 -262144 -1 -1 1
1;
#X obj 249 484 * 200;
#X floatatom 202 549 5 0 0 0 - - -, f 5;
#X floatatom 249 506 5 0 0 0 - - -, f 5;
#N canvas 11 93 450 588 freqs 1;
#X obj 47 93 sel 0 1 2 3 4 5 6 7;
#X obj 158 141 * 9;
#X obj 144 197 / 7;
#X obj 128 274 * 7;
#X obj 112 334 / 5;
#X obj 95 393 * 5;
#X obj 79 451 / 3;
#X obj 76 513 * 3;
#X msg 63 484 50;
#X msg 79 423 50;
#X msg 95 363 50;
#X obj 158 556 outlet;
#X msg 112 309 50;
#X msg 128 249 50;
#X msg 144 172 50;
#X msg 158 118 50;
#X obj 50 24 inlet;
#X msg 47 538 50;
#X connect 0 0 17 0;
#X connect 0 1 8 0;
#X connect 0 2 9 0;
#X connect 0 3 10 0;
#X connect 0 4 12 0;
#X connect 0 5 13 0;
#X connect 0 6 14 0;
#X connect 0 7 15 0;
#X connect 1 0 11 0;
#X connect 2 0 11 0;
#X connect 3 0 11 0;
#X connect 4 0 11 0;
#X connect 5 0 11 0;
#X connect 6 0 11 0;
#X connect 7 0 11 0;
#X connect 8 0 7 0;
#X connect 9 0 6 0;
#X connect 10 0 5 0;
#X connect 12 0 4 0;
#X connect 13 0 3 0;
#X connect 14 0 2 0;
#X connect 15 0 1 0;
#X connect 16 0 0 0;
#X connect 17 0 11 0;
#X restore 104 157 pd freqs;
#X obj 651 348 sel 0 1 2;
#X obj 651 310 hradio 15 1 0 3 empty empty empty 0 -8 0 10 -262144
-1 -1 0;
#X msg 652 456 1;
#X msg 671 399 1;
#X msg 666 420 0;
#X msg 686 375 0;
#X obj 652 478 s oscon;
#X obj 752 481 s phasoron;
#X obj 97 622 phasor~;
#X obj 46 649 *~;
#X obj 97 644 *~;
#X obj 174 615 r phasoron;
#X obj 301 666 r oscon;
#X obj 672 43 unpack 0 0;
#X msg 737 17 4 0;
#X msg 785 17 3 0;
#X msg 663 123 256;
#X obj 541 108 sel 0 1 2 3 4 5;
#X msg 672 21 2 0;
#X msg 627 10 0 1;
#X connect 0 0 11 0;
#X connect 1 0 5 0;
#X connect 1 0 16 0;
#X connect 2 0 23 0;
#X connect 2 0 42 0;
#X connect 3 0 4 0;
#X connect 4 0 8 0;
#X connect 5 0 2 0;
#X connect 6 0 3 0;
#X connect 7 0 3 1;
#X connect 8 0 0 0;
#X connect 11 0 28 0;
#X connect 12 0 10 0;
#X connect 13 0 10 1;
#X connect 14 0 12 0;
#X connect 14 0 13 0;
#X connect 15 0 14 0;
#X connect 16 0 6 0;
#X connect 16 0 7 0;
#X connect 16 0 25 0;
#X connect 16 0 24 0;
#X connect 17 0 51 0;
#X connect 18 0 16 1;
#X connect 19 0 16 1;
#X connect 20 0 16 1;
#X connect 21 0 16 1;
#X connect 22 0 16 1;
#X connect 23 0 43 0;
#X connect 24 0 12 1;
#X connect 24 1 13 1;
#X connect 25 0 14 1;
#X connect 27 0 33 0;
#X connect 28 1 26 0;
#X connect 28 1 23 0;
#X connect 28 1 31 0;
#X connect 28 1 42 0;
#X connect 29 0 30 0;
#X connect 30 0 28 1;
#X connect 30 0 32 0;
#X connect 33 0 6 0;
#X connect 34 0 36 0;
#X connect 34 0 38 0;
#X connect 34 1 37 0;
#X connect 34 1 39 0;
#X connect 34 2 36 0;
#X connect 34 2 37 0;
#X connect 35 0 34 0;
#X connect 36 0 40 0;
#X connect 37 0 41 0;
#X connect 38 0 41 0;
#X connect 39 0 40 0;
#X connect 42 0 44 0;
#X connect 43 0 15 0;
#X connect 44 0 15 0;
#X connect 45 0 44 1;
#X connect 46 0 43 1;
#X connect 47 0 17 0;
#X connect 47 1 35 0;
#X connect 48 0 47 0;
#X connect 49 0 47 0;
#X connect 50 0 16 1;
#X connect 51 0 18 0;
#X connect 51 1 19 0;
#X connect 51 2 20 0;
#X connect 51 3 21 0;
#X connect 51 4 22 0;
#X connect 51 5 50 0;
#X connect 52 0 47 0;
#X connect 53 0 47 0;
