#N canvas 490 161 1264 864 10;
#X obj 30 89 r root;
#X msg 798 59 50;
#X obj 798 81 s root;
#X obj 433 126 phasor~;
#X obj 590 12 tgl 15 0 empty empty empty 17 7 0 10 -262144 -1 -1 1
1;
#X floatatom 926 520 5 0 0 0 - - -, f 5;
#X obj 926 540 i;
#X obj 989 557 s blue;
#X obj 556 572 s width;
#X obj 590 34 metro 15;
#X obj 926 561 s green;
#X obj 861 562 s red;
#X floatatom 866 520 5 0 0 0 - - -, f 5;
#X obj 866 539 i;
#X floatatom 996 510 5 0 0 0 - - -, f 5;
#X obj 996 529 i;
#X obj 30 118 osc~;
#X obj 37 217 +~;
#X obj 72 123 phasor~;
#X obj 28 250 *~ 1;
#X obj 126 385 /~ 4;
#X obj 63 398 /~ 4;
#X obj 669 144 hsl 128 15 -1 1 0 0 empty empty empty -2 -8 0 10 -262144
-1 -1 9143 1;
#X obj 897 93 - 1;
#X floatatom 902 127 5 0 0 0 - - -, f 5;
#X obj 687 89 snapshot~;
#X obj 434 183 *~ 1;
#X obj 666 164 abs;
#X floatatom 666 186 5 0 0 0 - - -, f 5;
#X floatatom 902 168 5 0 0 0 - - -, f 5;
#X obj 903 193 hsl 128 15 0 127 0 0 empty empty empty -2 -8 0 10 -262144
-1 -1 3585 1;
#X obj 900 213 i;
#X obj 900 235 + 32;
#X obj 687 67 tri~ 2;
#X obj 902 146 * -64;
#X obj 947 346 s pix;
#X obj 778 10 loadbang;
#X obj 169 667 arduino_route;
#X obj 168 622 hradio 15 1 0 4 empty empty empty 0 -8 0 10 -262144
-1 -1 3;
#X obj 958 296 spigot;
#X obj 1019 279 r show_right;
#X obj 556 361 r show_right;
#X obj 556 383 sel 1;
#X msg 556 435 8;
#X obj 596 423 sel 1;
#X obj 596 401 r show_left;
#X floatatom 556 547 5 0 0 0 - - -, f 5;
#X msg 596 445 18;
#X obj 915 460 unpack 0 0 0;
#X obj 866 414 unpack 0 0 0;
#X msg 915 438 55 104 22;
#X msg 866 392 127 32 8;
#X obj 353 121 phasor~;
#X obj 384 183 *~ 1;
#X obj 590 56 s rate;
#X obj 303 10 r root;
#X obj 353 77 / 5;
#X obj 63 420 dac~;
#X obj 432 82 / 9;
#X obj 433 104 * 64;
#X obj 353 99 * 64;
#X obj 158 155 chord_pan~ 115 8;
#X obj 848 283 ctlout 1 2;
#X obj 454 487 ctlout 2 2;
#X obj 1085 396 ctlout 3 2;
#X obj 1085 426 ctlout 4 2;
#X obj 1085 456 ctlout 5 2;
#X obj 1085 486 ctlout 3 1;
#X obj 1085 516 ctlout 4 1;
#X obj 1085 546 ctlout 5 1;
#X obj 657 480 ctlout 2 1;
#X connect 0 0 16 0;
#X connect 0 0 18 0;
#X connect 1 0 2 0;
#X connect 3 0 26 0;
#X connect 3 0 53 0;
#X connect 4 0 9 0;
#X connect 5 0 6 0;
#X connect 6 0 10 0;
#X connect 9 0 54 0;
#X connect 9 0 25 0;
#X connect 12 0 13 0;
#X connect 13 0 11 0;
#X connect 14 0 15 0;
#X connect 15 0 7 0;
#X connect 16 0 17 0;
#X connect 17 0 19 0;
#X connect 18 0 17 1;
#X connect 19 0 20 0;
#X connect 19 0 21 0;
#X connect 20 0 57 1;
#X connect 21 0 57 0;
#X connect 22 0 27 0;
#X connect 23 0 24 0;
#X connect 24 0 26 1;
#X connect 24 0 34 0;
#X connect 25 0 22 0;
#X connect 26 0 20 0;
#X connect 27 0 28 0;
#X connect 28 0 23 0;
#X connect 28 0 53 1;
#X connect 29 0 30 0;
#X connect 30 0 31 0;
#X connect 31 0 32 0;
#X connect 32 0 39 0;
#X connect 32 0 62 0;
#X connect 33 0 25 0;
#X connect 34 0 29 0;
#X connect 36 0 1 0;
#X connect 36 0 4 0;
#X connect 38 0 37 0;
#X connect 39 0 35 0;
#X connect 40 0 39 1;
#X connect 41 0 42 0;
#X connect 41 0 51 0;
#X connect 42 0 43 0;
#X connect 43 0 46 0;
#X connect 43 0 63 0;
#X connect 44 0 47 0;
#X connect 45 0 44 0;
#X connect 45 0 50 0;
#X connect 46 0 8 0;
#X connect 47 0 46 0;
#X connect 47 0 70 0;
#X connect 48 0 12 0;
#X connect 48 0 67 0;
#X connect 48 1 5 0;
#X connect 48 1 68 0;
#X connect 48 2 14 0;
#X connect 48 2 69 0;
#X connect 49 0 12 0;
#X connect 49 0 64 0;
#X connect 49 1 5 0;
#X connect 49 1 65 0;
#X connect 49 2 14 0;
#X connect 49 2 66 0;
#X connect 50 0 48 0;
#X connect 51 0 49 0;
#X connect 52 0 53 0;
#X connect 52 0 26 0;
#X connect 53 0 21 0;
#X connect 55 0 56 0;
#X connect 55 0 58 0;
#X connect 56 0 60 0;
#X connect 58 0 59 0;
#X connect 59 0 3 0;
#X connect 60 0 52 0;
#X connect 61 0 21 0;
#X connect 61 1 20 0;
