#N canvas 5 63 780 535 10;
#X obj 145 370 outlet~;
#X obj 214 322 outlet~;
#X obj 144 97 / 3;
#X obj 144 119 * 32;
#X obj 144 141 phasor~;
#X obj 214 141 phasor~;
#X obj 214 97 / 9;
#X obj 214 119 * 64;
#X obj 144 203 *~;
#X obj 214 205 *~;
#X obj 144 21 r root;
#X obj 413 197 - 1;
#X floatatom 413 231 5 0 0 0 - - -, f 5;
#X floatatom 413 322 5 0 0 0 - - -, f 5;
#X obj 416 347 hsl 128 15 0 127 0 0 empty empty empty -2 -8 0 10 -262144
-1 -1 7904 1;
#X obj 413 367 i;
#X obj 421 85 tri~ 0.3;
#X obj 421 127 snapshot~;
#X obj 428 105 r rate;
#X obj 418 156 hsl 128 15 0 1 0 0 empty empty empty -2 -8 0 10 -262144
-1 -1 4796 1;
#X obj 413 411 spigot;
#X obj 413 433 s pix;
#X obj 504 407 r show_left;
#X obj 421 52 inlet;
#X obj 232 55 inlet;
#X obj 239 75 inlet;
#X obj 162 45 inlet;
#X obj 169 72 inlet;
#X obj 413 389 + \$2;
#X obj 413 250 * \$1;
#X obj 413 272 * -1;
#X connect 2 0 3 0;
#X connect 3 0 4 0;
#X connect 4 0 8 0;
#X connect 4 0 9 0;
#X connect 5 0 9 0;
#X connect 5 0 8 0;
#X connect 6 0 7 0;
#X connect 7 0 5 0;
#X connect 8 0 0 0;
#X connect 9 0 1 0;
#X connect 10 0 2 0;
#X connect 10 0 6 0;
#X connect 11 0 12 0;
#X connect 11 0 9 1;
#X connect 12 0 29 0;
#X connect 13 0 14 0;
#X connect 14 0 15 0;
#X connect 15 0 28 0;
#X connect 16 0 17 0;
#X connect 17 0 19 0;
#X connect 18 0 17 0;
#X connect 19 0 8 1;
#X connect 19 0 11 0;
#X connect 20 0 21 0;
#X connect 22 0 20 1;
#X connect 23 0 16 0;
#X connect 24 0 6 1;
#X connect 25 0 7 1;
#X connect 26 0 2 1;
#X connect 27 0 3 1;
#X connect 28 0 20 0;
#X connect 29 0 30 0;
#X connect 30 0 13 0;
