#N canvas 835 618 450 300 10;
#X obj 80 65 * \$1;
#X obj 80 177 osc~;
#X obj 180 108 *~ 0.5;
#X obj 180 82 osc~;
#X obj 171 221 outlet~;
#X obj 80 32 r root;
#X obj 147 39 r phase;
#X obj 99 87 / 1024;
#X obj 99 109 osc~;
#X obj 80 199 *~;
#X obj 80 243 outlet~;
#X obj 99 131 *~ 0.5;
#X obj 99 153 +~ 0.5;
#X connect 0 0 1 0;
#X connect 0 0 3 0;
#X connect 0 0 7 0;
#X connect 1 0 9 0;
#X connect 3 0 2 0;
#X connect 5 0 0 0;
#X connect 6 0 8 1;
#X connect 7 0 8 0;
#X connect 8 0 11 0;
#X connect 9 0 10 0;
#X connect 11 0 12 0;
#X connect 12 0 9 1;
#X connect 12 0 4 0;
