#N canvas 523 237 1096 665 10;
#X msg 581 118 50;
#X obj 706 46 tgl 15 0 empty empty empty 17 7 0 10 -262144 -1 -1 1
1;
#X obj 581 20 loadbang;
#X obj 581 42 t b b;
#N canvas 883 530 746 312 intro~ 0;
#X obj 61 31 r phase;
#X obj 577 15 r root;
#X obj 35 176 outlet~;
#X obj 96 176 outlet~;
#X obj 170 176 outlet~;
#X obj 232 176 outlet~;
#X obj 290 176 outlet~;
#X obj 35 141 tri~;
#X obj 97 139 tri~;
#X obj 169 137 tri~;
#X obj 231 137 tri~;
#X obj 289 137 tri~;
#X obj 361 176 outlet~;
#X obj 360 137 tri~;
#X obj 97 70 / 3;
#X obj 169 70 / 5;
#X obj 289 69 / 9;
#X obj 441 176 outlet~;
#X obj 440 137 tri~;
#X obj 511 176 outlet~;
#X obj 510 137 tri~;
#X obj 571 176 outlet~;
#X obj 570 137 tri~;
#X obj 447 69 / 10;
#X obj 517 69 / 12;
#X obj 360 69 / 8;
#X obj 577 69 / 11, f 6;
#X obj 231 70 / 4;
#X obj 576 104 / 4096;
#X obj 35 97 / 2048;
#X obj 516 104 4096;
#X obj 446 104 4098;
#X obj 360 102 / 4096;
#X obj 289 102 / 2048;
#X obj 231 102 / 2046;
#X obj 169 102 / 2048;
#X obj 97 97 / 2048;
#X connect 0 0 7 1;
#X connect 0 0 8 1;
#X connect 0 0 9 1;
#X connect 0 0 10 1;
#X connect 0 0 11 1;
#X connect 0 0 13 1;
#X connect 0 0 18 1;
#X connect 0 0 20 1;
#X connect 0 0 22 1;
#X connect 1 0 14 0;
#X connect 1 0 15 0;
#X connect 1 0 16 0;
#X connect 1 0 23 0;
#X connect 1 0 24 0;
#X connect 1 0 25 0;
#X connect 1 0 26 0;
#X connect 1 0 27 0;
#X connect 1 0 29 0;
#X connect 7 0 2 0;
#X connect 8 0 3 0;
#X connect 9 0 4 0;
#X connect 10 0 5 0;
#X connect 11 0 6 0;
#X connect 13 0 12 0;
#X connect 14 0 36 0;
#X connect 15 0 35 0;
#X connect 16 0 33 0;
#X connect 18 0 17 0;
#X connect 20 0 19 0;
#X connect 22 0 21 0;
#X connect 23 0 31 0;
#X connect 24 0 30 0;
#X connect 25 0 32 0;
#X connect 26 0 28 0;
#X connect 27 0 34 0;
#X connect 28 0 22 0;
#X connect 29 0 7 0;
#X connect 30 0 20 0;
#X connect 31 0 18 0;
#X connect 32 0 13 0;
#X connect 33 0 11 0;
#X connect 34 0 10 0;
#X connect 35 0 9 0;
#X connect 36 0 8 0;
#X restore 582 267 pd intro~;
#X obj 582 484 send~ first;
#X obj 593 463 send~ second;
#X obj 605 443 send~ third;
#X obj 627 106 s phase;
#X obj 617 423 send~ fourth;
#X obj 629 401 send~ fifth;
#X msg 613 70 0.5;
#X obj 639 376 send~ sixth;
#N canvas 296 333 649 621 width_gens 1;
#X obj 288 8 r~ camp;
#X obj 44 40 r~ first;
#X obj 44 62 *~;
#X obj 44 84 +~;
#X obj 138 46 r~ third;
#X obj 138 68 *~;
#X obj 44 106 +~;
#X obj 238 46 r~ seventh;
#X obj 238 68 *~;
#X obj 44 128 /~ 3;
#X obj 154 132 *~;
#X obj 154 154 +~;
#X obj 248 138 *~;
#X obj 154 110 r~ second;
#X obj 248 116 r~ fifth;
#X obj 304 202 *~;
#X obj 304 246 +~;
#X obj 498 208 *~;
#X obj 304 180 r~ fourth;
#X obj 511 176 r~ ninth;
#X obj 401 36 r~ lamp;
#X obj 524 65 r~ ramp;
#X obj 44 246 led_fmt;
#X floatatom 44 338 5 0 0 0 - - -, f 5;
#X obj 44 401 s width;
#X msg 309 461 64;
#X obj 309 483 s pix;
#X obj 44 357 spigot;
#X obj 100 310 r show_centre;
#X obj 309 433 sel 1;
#X obj 154 246 led_fmt;
#X floatatom 154 338 5 0 0 0 - - -, f 5;
#X obj 154 357 spigot;
#X obj 209 325 r show_left;
#X obj 98 265 r cvol;
#X obj 44 293 * 1;
#X obj 154 289 *;
#X obj 197 272 r lvol;
#X obj 304 290 led_fmt;
#X obj 304 312 *;
#X floatatom 304 334 5 0 0 0 - - -, f 5;
#X obj 304 353 spigot;
#X obj 363 330 r show_right;
#X floatatom 109 350 5 0 0 0 - - -, f 5;
#X obj 154 198 /~ 2;
#X obj 304 268 /~ 2;
#X obj 364 215 led_fmt;
#X floatatom 364 237 5 0 0 0 - - -, f 5;
#X obj 405 300 r rvol;
#X obj 55 437 i;
#X obj 175 413 i;
#X obj 407 372 i;
#X obj 397 417 ctlout 2 4;
#X obj 397 447 ctlout 1 2;
#X obj 397 467 ctlout 1 3;
#X obj 397 487 ctlout 1 4;
#X obj 173 447 ctlout 2 2;
#X obj 57 459 ctlout 2 3;
#X connect 0 0 2 1;
#X connect 0 0 5 1;
#X connect 0 0 8 1;
#X connect 1 0 2 0;
#X connect 2 0 3 0;
#X connect 3 0 6 0;
#X connect 4 0 5 0;
#X connect 5 0 3 1;
#X connect 6 0 9 0;
#X connect 7 0 8 0;
#X connect 8 0 6 1;
#X connect 9 0 22 0;
#X connect 10 0 11 0;
#X connect 11 0 44 0;
#X connect 12 0 11 1;
#X connect 13 0 10 0;
#X connect 14 0 12 0;
#X connect 15 0 16 0;
#X connect 16 0 45 0;
#X connect 17 0 16 1;
#X connect 18 0 15 0;
#X connect 19 0 17 0;
#X connect 20 0 12 1;
#X connect 20 0 10 1;
#X connect 21 0 17 1;
#X connect 21 0 15 1;
#X connect 22 0 35 0;
#X connect 23 0 27 0;
#X connect 25 0 26 0;
#X connect 25 0 53 0;
#X connect 25 0 54 0;
#X connect 25 0 55 0;
#X connect 27 0 24 0;
#X connect 27 0 49 0;
#X connect 28 0 27 1;
#X connect 28 0 29 0;
#X connect 28 0 43 0;
#X connect 29 0 25 0;
#X connect 30 0 36 0;
#X connect 31 0 32 0;
#X connect 31 0 50 0;
#X connect 32 0 24 0;
#X connect 33 0 32 1;
#X connect 33 0 29 0;
#X connect 34 0 35 1;
#X connect 35 0 23 0;
#X connect 36 0 31 0;
#X connect 37 0 36 1;
#X connect 38 0 39 0;
#X connect 39 0 40 0;
#X connect 40 0 41 0;
#X connect 40 0 51 0;
#X connect 41 0 24 0;
#X connect 42 0 41 1;
#X connect 42 0 29 0;
#X connect 44 0 30 0;
#X connect 45 0 38 0;
#X connect 46 0 47 0;
#X connect 48 0 39 1;
#X connect 49 0 57 0;
#X connect 50 0 56 0;
#X connect 51 0 52 0;
#X restore 585 204 pd width_gens;
#N canvas 624 351 856 591 lum_gens 1;
#X obj 28 19 r~ strip;
#X floatatom 42 69 5 0 0 0 - - -, f 5;
#X floatatom 168 107 5 0 0 0 - - -, f 5;
#X obj 168 19 r~ left;
#X floatatom 318 107 5 0 0 0 - - -, f 5;
#X obj 318 19 r~ right;
#X obj 28 41 led_fmt;
#X obj 26 398 s red;
#X obj 318 41 led_fmt;
#X obj 168 41 led_fmt;
#X obj 158 209 abs;
#X obj 315 198 abs;
#X obj 28 216 abs;
#X obj 28 238 * 6;
#X obj 318 141 pack 0 0;
#X obj 323 167 line;
#X obj 165 155 pack 0 0;
#X obj 165 177 line;
#X obj 53 130 pack 0 0;
#X obj 53 152 line;
#X floatatom 56 186 5 0 0 0 - - -, f 5;
#X msg 182 128 150;
#X msg 70 103 150;
#X msg 360 121 150;
#X obj 158 231 * 6;
#X obj 382 216 hsl 128 15 0 127 0 0 empty empty empty -2 -8 0 10 -262144
-1 -1 2952 1;
#X obj 9 437 hsl 128 15 0 127 0 0 empty empty empty -2 -8 0 10 -262144
-1 -1 22 1;
#X floatatom 28 260 5 0 0 0 - - -, f 5;
#X obj 39 350 / 8;
#X obj 40 376 s green;
#X obj 113 346 / 32;
#X obj 114 372 s blue;
#X obj 29 303 spigot;
#X obj 68 278 r show_centre;
#X obj 232 314 spigot;
#X obj 225 436 s green;
#X obj 239 414 s blue;
#X obj 315 392 s red;
#X obj 269 284 r show_left;
#X obj 429 323 spigot;
#X obj 426 418 s red;
#X obj 440 396 s green;
#X obj 515 392 s blue;
#X obj 468 298 r show_right;
#X floatatom 379 236 5 0 0 0 - - -, f 5;
#X obj 313 366 / 8;
#X obj 247 371 / 4;
#X obj 439 371 / 4;
#X obj 513 365 / 6;
#X obj 315 220 * 16;
#X obj 88 477 / 8;
#X obj 27 561 ctlout 3 3;
#X obj 6 457 i;
#X obj 88 499 i;
#X obj 198 486 / 32;
#X obj 200 510 i;
#X obj 323 476 / 8;
#X obj 414 498 i;
#X obj 323 498 i;
#X obj 510 510 i;
#X obj 576 457 i;
#X obj 658 499 i;
#X obj 768 486 / 32;
#X obj 770 510 i;
#X obj 508 486 / 4;
#X obj 658 477 / 4;
#X obj 106 561 ctlout 4 3;
#X obj 196 561 ctlout 5 3;
#X obj 422 560 ctlout 4 2;
#X obj 341 560 ctlout 3 2;
#X obj 506 560 ctlout 5 2;
#X floatatom 109 532 5 0 0 0 - - -, f 5;
#X floatatom 25 501 5 0 0 0 - - -, f 5;
#X floatatom 349 528 5 0 0 0 - - -, f 5;
#X obj 194 459 hsl 128 15 0 127 0 0 empty empty empty -2 -8 0 10 -262144
-1 -1 1791 1;
#X obj 648 297 hsl 128 15 0 127 0 0 empty empty empty -2 -8 0 10 -262144
-1 -1 2952 1;
#X obj 596 561 ctlout 3 4;
#X obj 676 561 ctlout 4 4;
#X obj 766 561 ctlout 5 4;
#X connect 0 0 6 0;
#X connect 1 0 18 0;
#X connect 1 0 22 0;
#X connect 2 0 21 0;
#X connect 2 0 16 0;
#X connect 3 0 9 0;
#X connect 4 0 14 0;
#X connect 4 0 23 0;
#X connect 5 0 8 0;
#X connect 6 0 1 0;
#X connect 8 0 4 0;
#X connect 9 0 2 0;
#X connect 10 0 24 0;
#X connect 11 0 49 0;
#X connect 12 0 13 0;
#X connect 13 0 27 0;
#X connect 13 0 26 0;
#X connect 14 0 15 0;
#X connect 15 0 11 0;
#X connect 16 0 17 0;
#X connect 17 0 10 0;
#X connect 18 0 19 0;
#X connect 19 0 12 0;
#X connect 19 0 20 0;
#X connect 21 0 16 1;
#X connect 22 0 18 1;
#X connect 23 0 14 1;
#X connect 24 0 34 0;
#X connect 24 0 57 0;
#X connect 24 0 56 0;
#X connect 24 0 64 0;
#X connect 24 0 74 0;
#X connect 25 0 44 0;
#X connect 26 0 52 0;
#X connect 26 0 50 0;
#X connect 26 0 54 0;
#X connect 27 0 32 0;
#X connect 28 0 29 0;
#X connect 30 0 31 0;
#X connect 32 0 7 0;
#X connect 32 0 28 0;
#X connect 32 0 30 0;
#X connect 33 0 32 1;
#X connect 34 0 45 0;
#X connect 34 0 35 0;
#X connect 34 0 46 0;
#X connect 38 0 34 1;
#X connect 39 0 40 0;
#X connect 39 0 47 0;
#X connect 39 0 48 0;
#X connect 43 0 39 1;
#X connect 44 0 60 0;
#X connect 44 0 65 0;
#X connect 44 0 62 0;
#X connect 45 0 37 0;
#X connect 46 0 36 0;
#X connect 47 0 41 0;
#X connect 48 0 42 0;
#X connect 49 0 25 0;
#X connect 49 0 39 0;
#X connect 49 0 75 0;
#X connect 50 0 53 0;
#X connect 52 0 51 0;
#X connect 52 0 72 0;
#X connect 53 0 66 0;
#X connect 53 0 71 0;
#X connect 54 0 55 0;
#X connect 55 0 67 0;
#X connect 56 0 58 0;
#X connect 57 0 68 0;
#X connect 58 0 69 0;
#X connect 58 0 73 0;
#X connect 59 0 70 0;
#X connect 60 0 76 0;
#X connect 61 0 77 0;
#X connect 62 0 63 0;
#X connect 63 0 78 0;
#X connect 64 0 59 0;
#X connect 65 0 61 0;
#X restore 586 238 pd lum_gens;
#X obj 706 90 s rate;
#X obj 652 356 send~ seventh;
#X obj 662 330 send~ eighth;
#X obj 673 298 send~ ninth;
#X obj 55 212 /~ 12;
#X obj 325 204 /~ 12;
#X obj 181 206 /~ 6;
#X obj 48 259 s~ left;
#X obj 322 247 s~ right;
#X obj 221 234 s~ strip;
#X obj 181 399 dac~ 1 2;
#X obj 430 200 vsl 15 128 0 2 0 0 empty empty empty 0 -9 0 10 -262144
-1 -1 0 1;
#X floatatom 427 405 5 0 0 0 - - -, f 5;
#X obj 181 319 *~ 1;
#X obj 279 325 *~ 1;
#X obj 581 140 s root;
#X obj 706 68 metro 15;
#N canvas 8 78 376 339 rosc~ 0;
#X obj 26 95 *~;
#X obj 49 68 r~ fourth;
#X obj 26 21 harmosc~ 9;
#X obj 214 27 r root;
#X obj 214 71 * 9;
#X obj 214 115 osc~;
#X obj 214 137 *~;
#X obj 214 159 *~;
#X obj 282 138 r~ ninth;
#X obj 214 49 / 5;
#X obj 214 93 * 16;
#X obj 137 42 s~ ramp;
#X obj 27 226 *~;
#X obj 27 248 outlet~;
#X obj 108 139 r rvol;
#X connect 0 0 12 0;
#X connect 1 0 0 1;
#X connect 2 0 0 0;
#X connect 2 1 6 1;
#X connect 2 1 11 0;
#X connect 3 0 9 0;
#X connect 4 0 10 0;
#X connect 5 0 6 0;
#X connect 6 0 7 0;
#X connect 7 0 12 0;
#X connect 8 0 7 1;
#X connect 9 0 4 0;
#X connect 10 0 5 0;
#X connect 12 0 13 0;
#X connect 14 0 12 1;
#X restore 325 157 pd rosc~;
#N canvas 485 124 1126 906 lead~ 0;
#X obj 60 449 clip 0 127;
#X obj 62 417 maxlib/scale 1000 12000 0 127;
#X obj 60 579 s green;
#X obj 37 644 clip 0 127;
#X obj 39 45 r lead;
#X obj 39 612 maxlib/scale 12000 16000 0 127;
#X obj 74 209 maxlib/scale 0 1000 0 127;
#X obj 73 236 clip 0 127;
#X floatatom 77 99 5 0 0 0 - - -, f 5;
#X obj 77 168 s pix;
#X obj 77 77 maxlib/scale 0 16000 12 100;
#X obj 458 81 inlet~;
#X obj 389 94 osc~;
#X obj 389 116 *~;
#X obj 389 138 *~;
#X obj 435 113 r~ eighth;
#X obj 389 160 led_fmt;
#X floatatom 389 182 5 0 0 0 - - -, f 5;
#X obj 389 224 abs;
#X obj 392 246 hsl 128 15 0 127 0 0 empty empty empty -2 -8 0 10 -262144
-1 -1 374 1;
#X obj 389 201 / 4;
#X obj 386 67 r lead;
#X obj 389 306 i;
#X obj 386 718 * 5;
#X obj 386 696 / 7;
#X obj 386 629 r root;
#X obj 386 651 cyclone/prepend set;
#X msg 386 673 50;
#X obj 410 522 random 8;
#X obj 410 566 * 2;
#X obj 410 588 - 1;
#X floatatom 386 785 16 0 0 0 - - -, f 16;
#X obj 387 434 t b b b;
#X obj 386 740 pow;
#X obj 410 544 + 4;
#X obj 433 462 random 3;
#X obj 386 815 s lead;
#X obj 388 355 sel 0;
#X floatatom 353 419 5 0 0 0 - - -, f 5;
#X obj 388 377 cyclone/counter 1 256 0;
#X obj 388 399 sel 256;
#X obj 433 484 + 2;
#X floatatom 430 608 5 0 0 0 - - -, f 5;
#X obj 386 762 % 16000;
#X obj 594 85 r lead;
#X obj 592 148 osc~;
#X obj 634 145 osc~;
#X obj 667 147 osc~;
#X obj 592 170 *~;
#X obj 634 167 *~;
#X obj 667 169 *~;
#X obj 729 143 r~ lamp;
#X obj 592 192 *~;
#X obj 634 189 *~;
#X obj 667 191 *~;
#X obj 729 170 r~ eighth;
#X obj 667 125 / 5;
#X obj 634 123 / 9;
#X obj 592 126 / 11;
#X obj 557 39 cyclone/pink~;
#X obj 557 61 *~ 1;
#X obj 449 355 s width;
#X obj 337 292 bng 15 250 50 0 empty empty empty 17 7 0 10 -262144
-1 -1;
#X obj 591 291 *~;
#X obj 591 313 outlet~;
#X obj 449 332 spigot;
#X obj 501 306 r show_lead;
#X obj 634 257 r leadvol;
#X obj 38 697 *;
#X obj 50 673 r leadvol;
#X floatatom 38 719 5 0 0 0 - - -, f 5;
#X obj 60 491 *;
#X obj 78 469 r leadvol;
#X floatatom 60 513 5 0 0 0 - - -, f 5;
#X obj 73 278 *;
#X floatatom 73 300 5 0 0 0 - - -, f 5;
#X obj 95 254 r leadvol;
#X obj 448 291 *;
#X floatatom 448 313 5 0 0 0 - - -, f 5;
#X obj 470 267 r leadvol;
#X obj 37 828 s red;
#X obj 38 788 spigot;
#X obj 78 762 r show_lead;
#X floatatom 528 339 5 0 0 0 - - -, f 5;
#X obj 60 559 spigot;
#X obj 100 535 r show_lead;
#X obj 73 350 s blue;
#X obj 73 319 spigot;
#X obj 146 286 r show_lead;
#X obj 77 138 spigot;
#X obj 125 117 r show_lead;
#X obj 292 149 r show_lead;
#X obj 294 179 sel 1;
#X obj 294 201 delay 100;
#X obj 100 738 ctlout 3 1;
#X obj 204 509 ctlout 4 1;
#X obj 164 354 ctlout 5 1;
#X obj 156 170 ctlout 1 1;
#X obj 590 385 ctlout 2 1;
#X obj 102 712 i;
#X obj 169 326 i;
#X obj 155 146 i;
#X obj 597 351 i;
#X obj 204 478 i;
#X connect 0 0 71 0;
#X connect 1 0 0 0;
#X connect 3 0 68 0;
#X connect 4 0 5 0;
#X connect 4 0 1 0;
#X connect 4 0 6 0;
#X connect 4 0 10 0;
#X connect 5 0 3 0;
#X connect 6 0 7 0;
#X connect 7 0 74 0;
#X connect 8 0 89 0;
#X connect 8 0 101 0;
#X connect 10 0 8 0;
#X connect 11 0 13 1;
#X connect 12 0 13 0;
#X connect 13 0 14 0;
#X connect 14 0 16 0;
#X connect 14 0 63 0;
#X connect 15 0 14 1;
#X connect 16 0 17 0;
#X connect 17 0 20 0;
#X connect 18 0 19 0;
#X connect 19 0 22 0;
#X connect 19 0 77 0;
#X connect 20 0 18 0;
#X connect 21 0 12 0;
#X connect 22 0 37 0;
#X connect 23 0 33 0;
#X connect 24 0 23 0;
#X connect 25 0 26 0;
#X connect 26 0 27 0;
#X connect 27 0 24 0;
#X connect 28 0 34 0;
#X connect 29 0 30 0;
#X connect 30 0 24 1;
#X connect 30 0 42 0;
#X connect 31 0 36 0;
#X connect 32 0 27 0;
#X connect 32 1 28 0;
#X connect 32 2 35 0;
#X connect 33 0 43 0;
#X connect 34 0 29 0;
#X connect 35 0 41 0;
#X connect 37 0 39 0;
#X connect 39 0 38 0;
#X connect 39 0 40 0;
#X connect 40 0 32 0;
#X connect 41 0 33 1;
#X connect 43 0 31 0;
#X connect 44 0 56 0;
#X connect 44 0 57 0;
#X connect 44 0 58 0;
#X connect 45 0 48 0;
#X connect 46 0 49 0;
#X connect 47 0 50 0;
#X connect 48 0 52 0;
#X connect 49 0 53 0;
#X connect 50 0 54 0;
#X connect 51 0 50 1;
#X connect 51 0 49 0;
#X connect 51 0 48 1;
#X connect 52 0 63 0;
#X connect 53 0 63 0;
#X connect 54 0 63 0;
#X connect 55 0 54 1;
#X connect 55 0 53 1;
#X connect 55 0 52 1;
#X connect 56 0 47 0;
#X connect 57 0 46 0;
#X connect 58 0 45 0;
#X connect 59 0 60 0;
#X connect 60 0 48 0;
#X connect 62 0 39 0;
#X connect 63 0 64 0;
#X connect 65 0 61 0;
#X connect 65 0 83 0;
#X connect 66 0 65 1;
#X connect 67 0 63 1;
#X connect 68 0 70 0;
#X connect 69 0 68 1;
#X connect 70 0 81 0;
#X connect 70 0 99 0;
#X connect 71 0 73 0;
#X connect 72 0 71 1;
#X connect 73 0 84 0;
#X connect 73 0 103 0;
#X connect 74 0 75 0;
#X connect 75 0 87 0;
#X connect 75 0 100 0;
#X connect 76 0 74 1;
#X connect 77 0 78 0;
#X connect 78 0 65 0;
#X connect 78 0 102 0;
#X connect 79 0 77 1;
#X connect 81 0 80 0;
#X connect 82 0 81 1;
#X connect 84 0 2 0;
#X connect 85 0 84 1;
#X connect 87 0 86 0;
#X connect 88 0 87 1;
#X connect 89 0 9 0;
#X connect 90 0 89 1;
#X connect 91 0 92 0;
#X connect 92 0 93 0;
#X connect 93 0 78 0;
#X connect 93 0 8 0;
#X connect 93 0 75 0;
#X connect 93 0 73 0;
#X connect 93 0 70 0;
#X connect 99 0 94 0;
#X connect 100 0 96 0;
#X connect 101 0 97 0;
#X connect 102 0 98 0;
#X connect 103 0 95 0;
#X restore 55 66 pd lead~;
#N canvas 1150 580 450 379 losc~ 0;
#X obj 132 144 * 11;
#X obj 132 173 osc~;
#X obj 132 195 *~;
#X obj 132 217 *~;
#X obj 99 135 *~;
#X obj 133 100 r root;
#X obj 115 79 r~ second;
#X obj 168 191 r~ fifth;
#X obj 99 28 harmosc~ 5;
#X obj 203 67 s~ lamp;
#X obj 113 264 *~;
#X obj 113 286 outlet~;
#X obj 201 244 r lvol;
#X connect 0 0 1 0;
#X connect 1 0 2 0;
#X connect 2 0 3 0;
#X connect 3 0 10 0;
#X connect 4 0 10 0;
#X connect 5 0 0 0;
#X connect 6 0 4 1;
#X connect 7 0 3 1;
#X connect 8 0 4 0;
#X connect 8 1 2 1;
#X connect 8 1 9 0;
#X connect 10 0 11 0;
#X connect 12 0 10 1;
#X restore 71 162 pd losc~;
#X obj 54 18 r~ lamp;
#N canvas 4 85 275 368 cosc~ 0;
#X obj 21 322 outlet~;
#X obj 32 193 *~;
#X obj 33 164 osc~;
#X obj 33 139 * 3;
#X obj 32 215 *~;
#X obj 35 70 r root;
#X obj 73 199 r~ first;
#X obj 102 93 r~ third;
#X obj 20 253 *~;
#X obj 20 21 harmosc~ 1;
#X obj 114 155 / 3;
#X obj 82 263 *~;
#X obj 83 234 osc~;
#X obj 82 285 *~;
#X obj 106 45 s~ camp;
#X obj 108 252 r seventh;
#X connect 1 0 4 0;
#X connect 2 0 1 0;
#X connect 3 0 2 0;
#X connect 5 0 3 0;
#X connect 5 0 10 0;
#X connect 6 0 8 1;
#X connect 7 0 4 1;
#X connect 8 0 0 0;
#X connect 9 0 8 0;
#X connect 9 1 1 1;
#X connect 9 1 11 1;
#X connect 9 1 14 0;
#X connect 10 0 12 0;
#X connect 11 0 13 0;
#X connect 12 0 11 0;
#X connect 13 0 0 0;
#X connect 15 0 13 1;
#X restore 181 168 pd cosc~;
#X obj 833 101 tgl 15 0 empty empty empty 17 7 0 10 -262144 -1 -1 1
1;
#X obj 833 123 metro 1;
#X floatatom 833 167 5 0 0 0 - - -, f 5;
#X obj 833 145 cyclone/counter;
#X floatatom 838 449 5 0 0 0 - - -, f 5;
#X obj 838 468 s lvol;
#X obj 908 13 key;
#X obj 908 35 sel 10 32;
#X obj 938 79 tgl 15 0 empty empty empty 17 7 0 10 -262144 -1 -1 1
1;
#X msg 938 99 \; pd dsp \$1;
#X obj 838 376 maxlib/scale 15000 60000 0 1;
#X obj 838 398 clip 0 1;
#X msg 892 432 0;
#X obj 861 279 maxlib/scale 60000 90000 0 1;
#X obj 861 301 clip 0 1;
#X floatatom 861 323 5 0 0 0 - - -, f 5;
#X obj 861 342 s rvol;
#X obj 876 193 maxlib/scale 90000 150000;
#X obj 876 215 clip 0 1;
#X floatatom 876 237 5 0 0 0 - - -, f 5;
#X obj 876 256 s leadvol;
#X obj 128 592 hradio 15 1 0 4 empty empty empty 0 -8 0 10 -262144
-1 -1 1;
#X obj 128 612 arduino_route;
#X connect 0 0 30 0;
#X connect 1 0 31 0;
#X connect 2 0 3 0;
#X connect 2 0 1 0;
#X connect 3 0 0 0;
#X connect 3 1 11 0;
#X connect 4 0 5 0;
#X connect 4 1 6 0;
#X connect 4 2 7 0;
#X connect 4 3 9 0;
#X connect 4 4 10 0;
#X connect 4 5 12 0;
#X connect 4 6 16 0;
#X connect 4 7 17 0;
#X connect 4 8 18 0;
#X connect 11 0 8 0;
#X connect 19 0 22 0;
#X connect 19 0 28 0;
#X connect 20 0 23 0;
#X connect 20 0 29 0;
#X connect 21 0 24 0;
#X connect 21 0 28 0;
#X connect 21 0 29 0;
#X connect 26 0 27 0;
#X connect 26 0 28 1;
#X connect 26 0 29 1;
#X connect 28 0 25 0;
#X connect 29 0 25 1;
#X connect 31 0 15 0;
#X connect 32 0 20 0;
#X connect 33 0 19 0;
#X connect 33 0 20 0;
#X connect 34 0 19 0;
#X connect 35 0 33 0;
#X connect 36 0 21 0;
#X connect 37 0 38 0;
#X connect 38 0 40 0;
#X connect 39 0 47 0;
#X connect 39 0 50 0;
#X connect 39 0 54 0;
#X connect 40 0 39 0;
#X connect 41 0 42 0;
#X connect 43 0 44 0;
#X connect 44 0 40 3;
#X connect 44 0 11 0;
#X connect 44 1 45 0;
#X connect 44 1 37 0;
#X connect 45 0 46 0;
#X connect 47 0 48 0;
#X connect 48 0 41 0;
#X connect 49 0 41 0;
#X connect 50 0 51 0;
#X connect 51 0 52 0;
#X connect 52 0 53 0;
#X connect 54 0 55 0;
#X connect 55 0 56 0;
#X connect 56 0 57 0;
#X connect 58 0 59 0;
