#N canvas 4 58 450 300 10;
#X obj 143 77 inlet;
#X msg 143 99 0;
#X msg 193 100 1;
#X obj 143 121 outlet;
#X obj 193 122 outlet;
#X connect 0 0 1 0;
#X connect 0 0 2 0;
#X connect 1 0 3 0;
#X connect 2 0 4 0;
