#N canvas 422 353 450 300 10;
#X obj 193 89 phasor~;
#X obj 78 89 phasor~;
#X obj 93 58 * -1;
#X obj 78 111 *~ 2;
#X obj 78 133 -~ 1;
#X obj 193 111 *~ 2;
#X obj 193 133 -~ 1;
#X obj 78 31 inlet;
#X obj 239 31 inlet;
#X obj 24 33 \$1;
#X obj 26 7 loadbang;
#X obj 78 185 +~;
#X obj 78 207 outlet~;
#X obj 78 155 clip~ 0 1;
#X obj 193 155 clip~ 0 1;
#X connect 0 0 5 0;
#X connect 1 0 3 0;
#X connect 2 0 0 0;
#X connect 3 0 4 0;
#X connect 4 0 13 0;
#X connect 5 0 6 0;
#X connect 6 0 14 0;
#X connect 7 0 1 0;
#X connect 7 0 2 0;
#X connect 8 0 0 1;
#X connect 8 0 1 1;
#X connect 9 0 2 0;
#X connect 9 0 1 0;
#X connect 10 0 9 0;
#X connect 11 0 12 0;
#X connect 13 0 11 0;
#X connect 14 0 11 1;
